<svg width="50" height="50" viewBox="0 0 50 50" fill="none" xmlns="http://www.w3.org/2000/svg">
<g clip-path="url(#clip0_1_2998)">
<path d="M14.4216 29.964L13.0989 34.9019L8.26434 35.0042C6.81952 32.3244 6 29.2583 6 26.0001C6 22.8495 6.76623 19.8783 8.12444 17.2622H8.12548L12.4296 18.0513L14.315 22.3296C13.9204 23.48 13.7053 24.715 13.7053 26.0001C13.7055 27.3948 13.9581 28.7312 14.4216 29.964Z" fill="#FBBB00"/>
<path d="M43.6678 22.4507C43.886 23.6 43.9998 24.787 43.9998 26.0001C43.9998 27.3604 43.8568 28.6873 43.5843 29.9672C42.6594 34.3226 40.2426 38.1257 36.8947 40.817L36.8936 40.816L31.4724 40.5394L30.7051 35.7496C32.9266 34.4468 34.6628 32.4079 35.5773 29.9672H25.4175V22.4507H35.7255H43.6678Z" fill="#518EF8"/>
<path d="M36.8936 40.8158L36.8946 40.8168C33.6386 43.434 29.5024 44.9999 24.9998 44.9999C17.7642 44.9999 11.4733 40.9557 8.26416 35.0041L14.4214 29.9639C16.026 34.2461 20.1569 37.2945 24.9998 37.2945C27.0814 37.2945 29.0316 36.7318 30.705 35.7494L36.8936 40.8158Z" fill="#28B446"/>
<path d="M37.1277 11.3742L30.9725 16.4133C29.2406 15.3308 27.1934 14.7054 25.0001 14.7054C20.0475 14.7054 15.8393 17.8936 14.3152 22.3294L8.12555 17.2621H8.12451C11.2867 11.1654 17.6569 7 25.0001 7C29.6102 7 33.8371 8.64216 37.1277 11.3742Z" fill="#F14336"/>
</g>
<defs>
<clipPath id="clip0_1_2998">
<rect width="38" height="38" fill="white" transform="translate(6 7)"/>
</clipPath>
</defs>
</svg>
