<svg width="31" height="31" viewBox="0 0 31 31" fill="none" xmlns="http://www.w3.org/2000/svg">
<path d="M15.5008 0C6.93912 0 8.4105e-08 6.93912 8.4105e-08 15.4992C-0.000211974 17.5348 0.400584 19.5506 1.1795 21.4313C1.95841 23.3121 3.10018 25.021 4.53961 26.4604C5.97903 27.8998 7.68791 29.0416 9.56865 29.8205C11.4494 30.5994 13.4652 31.0002 15.5008 31C24.0593 31 31 24.0609 31 15.4992C31 6.93912 24.0593 0 15.5008 0ZM16.9474 5.59585C18.4586 5.59585 18.9026 6.47253 18.9026 7.47513C18.9026 8.72637 17.9016 9.88396 16.1918 9.88396C14.7614 9.88396 14.08 9.16551 14.122 7.97563C14.122 6.97302 14.9599 5.59585 16.9474 5.59585ZM13.0758 24.7826C12.0425 24.7826 11.2886 24.1545 12.0103 21.4018L13.1937 16.5179C13.3987 15.7365 13.4326 15.4233 13.1937 15.4233C12.8853 15.4233 11.5437 15.9626 10.7526 16.4953L10.2375 15.651C12.7481 13.5537 15.6348 12.3235 16.8699 12.3235C17.9032 12.3235 18.0743 13.544 17.5593 15.4233L16.2031 20.5574C15.9626 21.4648 16.0659 21.778 16.3064 21.778C16.6164 21.778 17.6303 21.4034 18.6281 20.6172L19.2125 21.4018C16.7698 23.8429 14.1075 24.7826 13.0758 24.7826Z" fill="#2278B8"/>
</svg>
