<svg width="35" height="35" viewBox="0 0 35 35" fill="none" xmlns="http://www.w3.org/2000/svg">
<path d="M26.4991 8.50723C25.3348 7.33901 23.953 6.41007 22.4317 5.77286C20.8714 5.11729 19.1955 4.7814 17.503 4.78506H17.4449C14.0372 4.79874 10.8483 6.13174 8.46251 8.54141C6.07335 10.9511 4.7711 14.1503 4.78477 17.558C4.79503 19.619 5.30772 21.6664 6.27159 23.4745L6.4254 23.7616V28.5741H11.2379L11.525 28.7279C13.3331 29.6918 15.3805 30.2045 17.4415 30.2147H17.4996C20.8834 30.2147 24.0621 28.9091 26.4581 26.537C28.8644 24.1513 30.2008 20.9623 30.2213 17.558C30.2281 15.8285 29.8966 14.1537 29.2335 12.5746C28.5959 11.0535 27.667 9.67183 26.4991 8.50723ZM10.6637 19.1405C10.2344 19.1318 9.82558 18.9551 9.52505 18.6483C9.22453 18.3416 9.0562 17.9293 9.0562 17.4999C9.0562 17.0705 9.22453 16.6582 9.52505 16.3515C9.82558 16.0447 10.2344 15.868 10.6637 15.8593C11.093 15.868 11.5018 16.0447 11.8023 16.3515C12.1028 16.6582 12.2712 17.0705 12.2712 17.4999C12.2712 17.9293 12.1028 18.3416 11.8023 18.6483C11.5018 18.9551 11.093 19.1318 10.6637 19.1405ZM17.4996 19.1405C17.0703 19.1318 16.6615 18.9551 16.361 18.6483C16.0605 18.3416 15.8921 17.9293 15.8921 17.4999C15.8921 17.0705 16.0605 16.6582 16.361 16.3515C16.6615 16.0447 17.0703 15.868 17.4996 15.8593C17.9289 15.868 18.3377 16.0447 18.6382 16.3515C18.9388 16.6582 19.1071 17.0705 19.1071 17.4999C19.1071 17.9293 18.9388 18.3416 18.6382 18.6483C18.3377 18.9551 17.9289 19.1318 17.4996 19.1405ZM24.3356 19.1405C23.9062 19.1318 23.4975 18.9551 23.1969 18.6483C22.8964 18.3416 22.7281 17.9293 22.7281 17.4999C22.7281 17.0705 22.8964 16.6582 23.1969 16.3515C23.4975 16.0447 23.9062 15.868 24.3356 15.8593C24.7649 15.868 25.1737 16.0447 25.4742 16.3515C25.7747 16.6582 25.943 17.0705 25.943 17.4999C25.943 17.9293 25.7747 18.3416 25.4742 18.6483C25.1737 18.9551 24.7649 19.1318 24.3356 19.1405Z" fill="black" fill-opacity="0.05"/>
<path d="M22.6953 17.5C22.6953 17.9351 22.8682 18.3524 23.1758 18.6601C23.4835 18.9678 23.9008 19.1406 24.3359 19.1406C24.7711 19.1406 25.1884 18.9678 25.496 18.6601C25.8037 18.3524 25.9766 17.9351 25.9766 17.5C25.9766 17.0649 25.8037 16.6476 25.496 16.3399C25.1884 16.0322 24.7711 15.8594 24.3359 15.8594C23.9008 15.8594 23.4835 16.0322 23.1758 16.3399C22.8682 16.6476 22.6953 17.0649 22.6953 17.5ZM9.02344 17.5C9.02344 17.9351 9.19629 18.3524 9.50397 18.6601C9.81164 18.9678 10.2289 19.1406 10.6641 19.1406C11.0992 19.1406 11.5165 18.9678 11.8242 18.6601C12.1318 18.3524 12.3047 17.9351 12.3047 17.5C12.3047 17.0649 12.1318 16.6476 11.8242 16.3399C11.5165 16.0322 11.0992 15.8594 10.6641 15.8594C10.2289 15.8594 9.81164 16.0322 9.50397 16.3399C9.19629 16.6476 9.02344 17.0649 9.02344 17.5Z" fill="#2278B8"/>
<path d="M31.6232 11.5664C30.8508 9.73096 29.7434 8.0835 28.3317 6.66846C26.93 5.26161 25.2659 4.14334 23.4338 3.37695C21.5539 2.5874 19.5578 2.1875 17.5002 2.1875H17.4318C15.3605 2.19775 13.3542 2.60791 11.4675 3.41455C9.65102 4.18879 8.00256 5.30905 6.61396 6.71289C5.21601 8.12451 4.11885 9.76514 3.36006 11.5938C2.57392 13.4873 2.17744 15.5005 2.18769 17.5718C2.19929 19.9455 2.76086 22.2842 3.82832 24.4043V29.5996C3.82832 30.0166 3.99397 30.4165 4.28883 30.7114C4.58368 31.0062 4.98359 31.1719 5.40058 31.1719H10.5993C12.7195 32.2393 15.0582 32.8009 17.4318 32.8125H17.5036C19.551 32.8125 21.5368 32.416 23.4064 31.6401C25.2293 30.8829 26.8872 29.7777 28.2873 28.3862C29.6989 26.9883 30.8098 25.3545 31.5856 23.5327C32.3923 21.646 32.8024 19.6396 32.8127 17.5684C32.8229 15.4868 32.4196 13.4668 31.6232 11.5664ZM26.4587 26.5371C24.0627 28.9092 20.884 30.2148 17.5002 30.2148H17.4421C15.3811 30.2046 13.3337 29.6919 11.5256 28.728L11.2385 28.5742H6.42598V23.7617L6.27217 23.4746C5.3083 21.6665 4.7956 19.6191 4.78535 17.5581C4.77168 14.1504 6.07392 10.9512 8.46308 8.5415C10.8488 6.13184 14.0378 4.79883 17.4455 4.78516H17.5036C19.2126 4.78516 20.8703 5.1167 22.4323 5.77295C23.9567 6.41211 25.3239 7.33154 26.4997 8.50732C27.6721 9.67969 28.5949 11.0503 29.2341 12.5747C29.8972 14.1538 30.2287 15.8286 30.2219 17.5581C30.2014 20.9624 28.8649 24.1514 26.4587 26.5371Z" fill="#2278B8"/>
<path d="M15.8594 17.5C15.8594 17.9351 16.0322 18.3524 16.3399 18.6601C16.6476 18.9678 17.0649 19.1406 17.5 19.1406C17.9351 19.1406 18.3524 18.9678 18.6601 18.6601C18.9678 18.3524 19.1406 17.9351 19.1406 17.5C19.1406 17.0649 18.9678 16.6476 18.6601 16.3399C18.3524 16.0322 17.9351 15.8594 17.5 15.8594C17.0649 15.8594 16.6476 16.0322 16.3399 16.3399C16.0322 16.6476 15.8594 17.0649 15.8594 17.5Z" fill="#2278B8"/>
</svg>
