<svg width="32" height="33" viewBox="0 0 32 33" fill="none" xmlns="http://www.w3.org/2000/svg">
<path d="M15.9997 22.5002C12.8393 22.5002 10.281 20.054 10.0456 16.954L5.67474 13.5761C5.10016 14.2969 4.57141 15.059 4.14474 15.8923C4.04943 16.0809 3.99977 16.2892 3.99977 16.5004C3.99977 16.7117 4.04943 16.92 4.14474 17.1086C6.40432 21.5173 10.8776 24.5002 15.9997 24.5002C17.121 24.5002 18.2026 24.3335 19.2451 24.0644L17.083 22.3915C16.726 22.4604 16.3634 22.4968 15.9997 22.5002ZM29.0755 24.921L24.4693 21.3611C25.8685 20.1819 27.0193 18.7362 27.8547 17.1082C27.95 16.9196 27.9996 16.7113 27.9996 16.5C27.9996 16.2888 27.95 16.0805 27.8547 15.8919C25.5951 11.4832 21.1218 8.50026 15.9997 8.50026C13.8545 8.50286 11.7441 9.04292 9.86139 10.0711L4.56057 5.97402C4.49145 5.92023 4.41241 5.88059 4.32796 5.85737C4.24351 5.83414 4.15531 5.82778 4.0684 5.83865C3.98149 5.84953 3.89758 5.87742 3.82145 5.92074C3.74533 5.96405 3.67849 6.02194 3.62474 6.0911L2.80683 7.14402C2.69833 7.28359 2.64971 7.46055 2.67167 7.63597C2.69362 7.81139 2.78436 7.9709 2.92391 8.07943L27.4388 27.0265C27.508 27.0802 27.587 27.1199 27.6715 27.1431C27.7559 27.1663 27.8441 27.1727 27.931 27.1618C28.0179 27.151 28.1018 27.1231 28.178 27.0797C28.2541 27.0364 28.3209 26.9785 28.3747 26.9094L29.193 25.8565C29.3015 25.7168 29.35 25.5398 29.328 25.3644C29.3059 25.189 29.2151 25.0295 29.0755 24.921ZM21.4205 19.0044L19.783 17.7386C19.9209 17.34 19.9941 16.9219 19.9997 16.5002C20.0078 15.8828 19.871 15.2722 19.6003 14.7172C19.3296 14.1623 18.9326 13.6786 18.441 13.3049C17.9495 12.9313 17.3771 12.6781 16.77 12.5658C16.1628 12.4535 15.5378 12.4851 14.9451 12.6582C15.1964 12.9986 15.3323 13.4104 15.333 13.8336C15.3268 13.9744 15.3053 14.1141 15.2689 14.2502L12.2018 11.8798C13.2672 10.9895 14.6113 10.5013 15.9997 10.5003C16.7878 10.4998 17.5682 10.6547 18.2963 10.9561C19.0245 11.2575 19.6861 11.6994 20.2433 12.2566C20.8005 12.8139 21.2425 13.4755 21.5439 14.2036C21.8452 14.9318 22.0001 15.7122 21.9997 16.5002C21.9997 17.4015 21.7793 18.2415 21.4205 19.0048V19.0044Z" fill="#2278B8"/>
</svg>
